# xmcd
#
# Track frame offsets: 
#        150
#        24696
#        36347
#        59743
#        75651
#        87919
#        126900
#        149081
#        166480
#        185638
#        209704
#        234638
#        249972
#        267063
#        287759
#        299768
#
# Disc length: 4223 seconds
#
# Revision: 0
# Processed by: cddbd v1.5.2PL0 Copyright (c) Steve Scherf et al.
# Submitted via: ExactAudioCopy v0.99pb4
#
DISCID=04107d10
DTITLE=B.B.King - His Definitive Greatest Hits Disc 1
DYEAR=1999
DGENRE=Blues
TTITLE0=B.B. King - The Thrill Is Gone
TTITLE1=B.B. King - Paying the Cost to Be the Boss
TTITLE2=B.B. King - Don't Answer the Door, Pts. 1 and 2
TTITLE3=B.B. King - I Like to Live the Love
TTITLE4=B.B. King - How Blue Can You Get?
TTITLE5=B.B. King - Why I Sing the Blues
TTITLE6=B.B. King - Chains and Things
TTITLE7=B.B. King - To Know You Is to Love You
TTITLE8=B.B. King - When Love Comes to Town [7" Edit and Mix]
TTITLE9=B.B. King - Playin' With My Friends
TTITLE10=B.B. King - Never Make a Move Too Soon
TTITLE11=B.B. King - Better Not Look Down
TTITLE12=B.B. King - There Must Be a Better World Somewhere
TTITLE13=B.B. King - Hummingbird
TTITLE14=B.B. King - Every Day I Have the Blues [Live]
TTITLE15=B.B. King - Sweet Little Angel [Live]
EXTD=
EXTT0=
EXTT1=
EXTT2=
EXTT3=
EXTT4=
EXTT5=
EXTT6=
EXTT7=
EXTT8=
EXTT9=
EXTT10=
EXTT11=
EXTT12=
EXTT13=
EXTT14=
EXTT15=
PLAYORDER=
